<svg width="54" height="67" viewBox="0 0 54 67" fill="none" xmlns="http://www.w3.org/2000/svg">
<path d="M38.6416 0H26.6953V13.8957H38.6416V0Z" fill="white"/>
<path d="M26.6953 25.197H38.6416V44.7947C38.6962 49.5105 37.3687 54.1362 34.828 58.0839C32.3192 61.9194 27.4764 66.4829 18.5167 66.4829C8.75753 66.4829 3.06927 61.8167 0 59.2597L7.53534 49.8621C10.5311 52.3352 13.4166 54.3696 18.5627 54.3696C22.459 54.3696 24.012 52.7645 24.9218 51.3646C26.1585 49.4203 26.7983 47.1465 26.7596 44.8321L26.6953 25.197Z" fill="white"/>
<path d="M20.6028 16.4248H8.65649V28.5567H20.6028V16.4248Z" fill="#29ABE2"/>
<path d="M44.8995 60.7904C44.8995 63.3754 43.6038 64.7659 41.7935 64.7659C39.9832 64.7659 38.7977 63.1141 38.7977 60.9211C38.7977 58.728 40.0199 56.9922 41.8946 56.9922C43.7692 56.9922 44.8995 58.7 44.8995 60.7904ZM40.1853 60.8931C40.1853 62.4516 40.801 63.5994 41.8578 63.5994C42.9146 63.5994 43.5119 62.3862 43.5119 60.7997C43.5119 59.4092 42.9605 58.1027 41.8578 58.1027C40.7551 58.1027 40.1853 59.3626 40.1853 60.8931Z" fill="white"/>
<path d="M47.2704 57.104V64.6445H45.9471V57.104H47.2704Z" fill="white"/>
<path d="M48.704 64.6445V57.104H50.1743L51.7549 60.2116C52.1618 61.0242 52.5238 61.8592 52.8392 62.7127C52.7565 61.7795 52.7198 60.7063 52.7198 59.5117V57.104H53.9328V64.6445H52.5635L50.9646 61.4715C50.5412 60.638 50.1639 59.7812 49.8343 58.9051C49.8343 59.8384 49.8986 60.8929 49.8986 62.1901V64.6351L48.704 64.6445Z" fill="white"/>
</svg>
