<?xml version="1.0" encoding="UTF-8"?>
<svg version="1.1" xmlns="http://www.w3.org/2000/svg" width="512" height="512">
<path d="M0 0 C5.62736731 3.30719992 7.78232248 8.69460981 10.5859375 14.328125 C11.36606705 15.85992401 11.36606705 15.85992401 12.16195679 17.42266846 C13.24836843 19.55804128 14.3298601 21.6959238 15.40661621 23.83618164 C16.90209849 26.80560704 18.41243317 29.76676315 19.93066406 32.72460938 C22.33991566 37.41884178 24.73842028 42.11843963 27.13278198 46.82028198 C29.73529552 51.92987771 32.34257614 57.03704109 34.94921875 62.14453125 C35.46736649 63.15995499 35.98551422 64.17537872 36.5193634 65.22157288 C46.99120484 85.74221704 57.48495219 106.24263241 68.34698486 126.55999756 C76.03688141 140.95386011 83.45435154 155.48452403 90.87477112 170.01861572 C91.30668259 170.86454285 91.73859406 171.71046997 92.18359375 172.58203125 C92.81991982 173.82844391 92.81991982 173.82844391 93.46910095 175.10003662 C97.18970663 182.38255068 100.95942655 189.63825627 104.75390625 196.88256836 C108.63068576 204.28438123 112.47597444 211.70226602 116.3125 219.125 C116.62740387 219.73418274 116.94230774 220.34336548 117.26675415 220.9710083 C118.86885526 224.07037959 120.47066066 227.16990355 122.07226562 230.26953125 C125.23422074 236.38877384 128.39823358 242.50695234 131.5625 248.625 C131.87288208 249.22513916 132.18326416 249.82527832 132.50305176 250.44360352 C139.32534898 263.63426474 146.16169479 276.81763186 153 290 C160.17402146 303.82953656 167.34418314 317.66103563 174.5 331.5 C180.92856072 343.936635 180.92856072 343.936635 187.37451172 356.36425781 C188.54010672 358.61871688 189.69542896 360.8785173 190.84033203 363.14355469 C193.59620066 368.56382392 196.43985048 373.78165697 199.765625 378.875 C209.98454047 395.04861807 210.26643679 409.0281764 209.37944031 427.44586182 C208.99803565 435.67741351 208.89644166 443.89762238 208.84634399 452.13633537 C208.82243865 456.01239421 208.7907932 459.88839299 208.76025391 463.7644043 C208.74795545 465.32603939 208.73568739 466.88767473 208.72344971 468.4493103 C208.71737953 469.22128628 208.71130936 469.99326225 208.70505524 470.78863144 C208.68752875 473.12117433 208.67244014 475.45372526 208.65740967 477.7862854 C208.63178885 481.49536525 208.59028303 485.20397955 208.53769493 488.91277122 C208.52053274 490.2969433 208.50858592 491.68119099 208.50214577 493.06545448 C208.49255245 494.98011423 208.46291047 496.89464179 208.43237305 498.80908203 C208.42126999 499.88835968 208.41016693 500.96763733 208.39872742 502.07962036 C207.8136211 506.36508579 206.01852367 508.98147633 203 512 C198.9587361 513.29216378 195.04411891 513.03877737 191.23876953 511.10498047 C187.02271612 508.52044786 183.07666001 505.55562119 179.12646484 502.58642578 C175.72024681 500.04525417 172.23085554 497.62479268 168.75 495.1875 C167.32762768 494.1816925 165.90576249 493.1751675 164.484375 492.16796875 C159.66846545 488.76115075 154.83480885 485.37991954 150 482 C134.96635679 471.4856817 134.96635679 471.4856817 129.03588867 467.26220703 C125.73779378 464.91457063 122.42598081 462.60672837 119.04296875 460.3828125 C118.41310059 459.9590332 117.78323242 459.53525391 117.13427734 459.09863281 C115.44867234 457.96646285 113.75024163 456.85345141 112.05078125 455.7421875 C103.84589819 449.20907686 99.75449638 436.89094968 95.0625 427.6875 C94.31028703 426.21854961 93.55767583 424.74980308 92.8046875 423.28125 C91.2711552 420.29013433 89.73894393 417.29834771 88.20751953 414.30615234 C84.99144283 408.02719537 81.74553761 401.76376979 78.5 395.5 C72.79145108 384.47279506 67.1009506 373.43638196 61.41699219 362.39648438 C56.45482956 352.75904116 51.48298096 343.12669513 46.5 333.5 C41.15448487 323.17291971 35.82301926 312.83869306 30.5 302.5 C25.13417034 292.07857779 19.76167147 281.66066614 14.375 271.25 C14.06850525 270.6576355 13.7620105 270.065271 13.44622803 269.45495605 C11.29788946 265.30309485 9.14899576 261.15152109 7 257 C4.5413043 252.25018744 2.08282825 247.50026148 -0.375 242.75 C-0.83450043 241.86193665 -0.83450043 241.86193665 -1.30328369 240.95593262 C-6.74464315 230.43827641 -12.16967204 219.91224519 -17.58950806 209.38348389 C-21.24065609 202.29064891 -24.89374933 195.19891844 -28.56640625 188.1171875 C-37.51102458 170.86944748 -46.3589619 153.57357431 -55.17407227 136.25927734 C-61.13416332 124.56090983 -67.16351744 112.90107694 -73.24829102 101.26708984 C-75.5927548 96.78375612 -77.92357455 92.29362536 -80.2421875 87.796875 C-80.55197037 87.19636322 -80.86175323 86.59585144 -81.18092346 85.97714233 C-82.38749252 83.63741931 -83.59335963 81.29733602 -84.79785156 78.95654297 C-85.71564209 77.17355875 -86.63515458 75.39146125 -87.5546875 73.609375 C-88.12840088 72.49715576 -88.70211426 71.38493652 -89.29321289 70.23901367 C-91.40946158 66.22295426 -93.63766923 62.2751003 -95.9074707 58.34399414 C-97.80876268 54.26482001 -97.51230518 52.24885741 -96 48 C-91.53354055 42.95980688 -85.74390269 40.08060074 -79.75 37.25 C-77.94316664 36.37152503 -76.13719441 35.49127695 -74.33203125 34.609375 C-73.4292041 34.17044922 -72.52637695 33.73152344 -71.59619141 33.27929688 C-67.83659792 31.42672307 -64.13609062 29.47084622 -60.4375 27.5 C-50.93822972 22.45931401 -41.37644999 17.54143563 -31.8125 12.625 C-31.04138885 12.22837158 -30.27027771 11.83174316 -29.47579956 11.4230957 C-27.24069451 10.27363181 -25.00520165 9.12492638 -22.76953125 7.9765625 C-22.10553314 7.63521271 -21.44153503 7.29386292 -20.75741577 6.94216919 C-19.48233183 6.28785006 -18.20617336 5.63561994 -16.92886353 4.98565674 C-15.57117458 4.29187243 -14.21783885 3.58953584 -12.86776733 2.88104248 C-11.81693466 2.3373703 -11.81693466 2.3373703 -10.74487305 1.78271484 C-10.11526169 1.45314789 -9.48565033 1.12358093 -8.83695984 0.7840271 C-5.73245886 -0.54099528 -3.29611571 -0.4975269 0 0 Z M-12.88476562 25.1965332 C-14.04685547 25.80843506 -15.20894531 26.42033691 -16.40625 27.05078125 C-17.03899338 27.38039856 -17.67173676 27.71001587 -18.32365417 28.04962158 C-20.38758567 29.12773198 -22.44373304 30.21985251 -24.5 31.3125 C-25.9159731 32.05611358 -27.3323975 32.79886843 -28.74926758 33.54077148 C-31.55529223 35.01201624 -34.3583009 36.48876319 -37.15869141 37.97070312 C-40.38375818 39.67675621 -43.61694114 41.36647957 -46.85546875 43.046875 C-55.3767409 47.47627788 -63.77231411 52.04039693 -72 57 C-70.756333 60.96986057 -69.30885961 64.59593071 -67.3828125 68.28125 C-66.86372314 69.27817871 -66.34463379 70.27510742 -65.80981445 71.30224609 C-65.25382568 72.35750488 -64.69783691 73.41276367 -64.125 74.5 C-63.55289795 75.5926416 -62.9807959 76.6852832 -62.39135742 77.81103516 C-53.29524068 95.75347785 -53.29524068 95.75347785 -43 113 C-38.2029348 111.55008021 -33.85489002 109.52861164 -29.42578125 107.21875 C-28.70795471 106.84866821 -27.99012817 106.47858643 -27.25054932 106.09729004 C-24.93566271 104.90240105 -22.62404181 103.70134483 -20.3125 102.5 C-18.72598951 101.67937919 -17.13931916 100.85906738 -15.55249023 100.0390625 C-5.78431056 94.98632823 3.96729771 89.90188555 13.68359375 84.75 C16.1098889 83.46969349 18.53782226 82.20904892 21 81 C20.42973235 77.4908968 19.5519842 74.80855884 17.8046875 71.71875 C17.34312256 70.89012451 16.88155762 70.06149902 16.40600586 69.20776367 C15.64815796 67.86742065 15.64815796 67.86742065 14.875 66.5 C11.12045139 59.77052001 7.45881385 53.00863578 3.97265625 46.13671875 C3.46841125 45.14582748 3.46841125 45.14582748 2.95397949 44.13491821 C1.613438 41.49849573 0.27398898 38.86177174 -1.04669189 36.21533203 C-1.97197009 34.36184513 -2.90877516 32.51459273 -3.84765625 30.66796875 C-4.6521521 29.06344849 -4.6521521 29.06344849 -5.47290039 27.42651367 C-7.70198036 23.8845751 -9.05137441 23.60653233 -12.88476562 25.1965332 Z M22.12890625 101.9296875 C21.24452881 102.38856102 21.24452881 102.38856102 20.34228516 102.85670471 C18.41356783 103.85878392 16.48798539 104.86672649 14.5625 105.875 C13.23509145 106.56676937 11.90753542 107.25825582 10.57983398 107.94946289 C7.30712851 109.65454282 4.03704394 111.36458509 0.76757812 113.0758667 C-1.70487678 114.36852691 -4.18062552 115.65482895 -6.65625 116.94140625 C-15.89481227 121.75628021 -25.00316966 126.74573367 -34 132 C-32.37317535 137.70323584 -29.66802013 142.68013903 -26.875 147.875 C-26.40707031 148.75414062 -25.93914062 149.63328125 -25.45703125 150.5390625 C-24.3087907 152.69494271 -23.15636097 154.84846777 -22 157 C-17.00174557 155.48567446 -12.49240205 153.39909819 -7.83984375 151.0703125 C-7.06058029 150.68336716 -6.28131683 150.29642181 -5.47843933 149.89775085 C-2.9621955 148.64529485 -0.44956403 147.38581633 2.0625 146.125 C2.91338196 145.69947845 3.76426392 145.27395691 4.64093018 144.83554077 C17.68266728 138.30604734 30.49251567 131.51348879 43 124 C36.76921816 111.35850294 36.76921816 111.35850294 30 99 C26.93226522 99 24.83645972 100.51843389 22.12890625 101.9296875 Z M46.11328125 145.40625 C45.17548828 145.90253906 44.23769531 146.39882812 43.27148438 146.91015625 C41.80678711 147.69712891 41.80678711 147.69712891 40.3125 148.5 C39.32443359 149.02464844 38.33636719 149.54929688 37.31835938 150.08984375 C34.87592294 151.38775683 32.43668153 152.69132388 30 154 C31.35514812 158.40443835 33.08339238 162.34888615 35.2109375 166.43359375 C35.69066513 167.35961143 35.69066513 167.35961143 36.18008423 168.30433655 C36.87530848 169.64512617 37.57251433 170.98488976 38.27148438 172.32373047 C39.79502369 175.2420498 41.30897247 178.16531264 42.8237915 181.08816528 C43.63166714 182.64659869 44.44006776 184.20476005 45.2489624 185.76266479 C49.44115289 193.83859958 53.59103469 201.93604018 57.73791504 210.03530884 C65.38698128 224.97296086 73.06171154 239.89727215 80.75090027 254.81430054 C81.09478287 255.48144073 81.43866547 256.14858093 81.79296875 256.8359375 C82.13664993 257.50267487 82.48033112 258.16941223 82.83442688 258.85635376 C86.87363449 266.69340767 90.90574445 274.5341105 94.9375 282.375 C95.4973056 283.46367371 95.4973056 283.46367371 96.06842041 284.57434082 C97.95697683 288.24711691 99.84545355 291.91993397 101.73388672 295.59277344 C103.99030729 299.98124972 106.24705667 304.36955683 108.50390625 308.7578125 C108.87509079 309.47955658 109.24627533 310.20130066 109.62870789 310.94491577 C111.49938497 314.58229408 113.3701313 318.21963676 115.2409668 321.85693359 C118.65421478 328.49317243 122.06698025 335.1296573 125.47740173 341.76734924 C127.02074199 344.77104533 128.56445861 347.77454791 130.10818481 350.77804565 C130.86478583 352.25037929 131.62119689 353.72281056 132.37741089 355.19534302 C136.29750516 362.82862431 140.22972914 370.45493837 144.20703125 378.05859375 C144.86623237 379.32095235 145.5254126 380.58332186 146.18457031 381.84570312 C147.40181083 384.17641631 148.62457393 386.50393628 149.85058594 388.83007812 C150.38586914 389.85423828 150.92115234 390.87839844 151.47265625 391.93359375 C151.93937744 392.82103271 152.40609863 393.70847168 152.88696289 394.62280273 C154.8188271 398.74883077 155.28036613 400.18693823 153.75 404.625 C152 408 152 408 149 410 C141.99213617 410.67818037 141.99213617 410.67818037 138.56665039 408.33666992 C135.73772382 405.76122464 134.45509942 403.5868317 132.80078125 400.15234375 C132.23037109 398.98767578 131.65996094 397.82300781 131.07226562 396.62304688 C130.48506634 395.39482305 129.89847655 394.16630765 129.3125 392.9375 C128.16519128 390.57043481 127.01539524 388.20457381 125.86328125 385.83984375 C125.5635289 385.22274536 125.26377655 384.60564697 124.9549408 383.96984863 C122.08172252 378.08958343 119.03002256 372.30877839 115.96679688 366.52583313 C111.31257209 357.72866461 106.79289883 348.86412968 102.27532959 339.99621582 C99.74770198 335.03503344 97.21580245 330.07603288 94.68359375 325.1171875 C94.18647888 324.14362305 93.68936401 323.17005859 93.17718506 322.16699219 C89.26786272 314.5150487 85.33160142 306.87760014 81.375 299.25 C75.42044397 287.76926122 69.51647836 276.26320449 63.625 264.75 C57.24543526 252.28323213 50.85634434 239.8215928 44.4375 227.375 C38.45583074 215.77486967 32.48723323 204.16809345 26.53030396 192.55523682 C25.64541655 190.83018802 24.7603898 189.1052107 23.87521362 187.38031006 C22.6390176 184.97121729 21.40340011 182.56182873 20.16796875 180.15234375 C19.80515808 179.44541885 19.44234741 178.73849396 19.06854248 178.01014709 C16.68273556 173.35462863 14.33332902 168.68204982 12 164 C6.39523177 165.57804154 1.64949374 168.26416385 -3.375 171.125 C-4.20644531 171.59292969 -5.03789062 172.06085938 -5.89453125 172.54296875 C-7.93234954 173.69070549 -9.96735569 174.84313282 -12 176 C-7.01873805 186.78015529 -1.81449334 197.40617914 3.71850586 207.91381836 C8.99364243 217.94492022 14.15349419 228.03380566 19.3125 238.125 C26.00256117 251.20562241 32.71321901 264.27479418 39.47241211 277.31982422 C44.29057747 286.62102375 49.08639795 295.93355254 53.875 305.25 C55.40233473 308.22135881 56.92967305 311.19271576 58.45703125 314.1640625 C58.83520996 314.89979492 59.21338867 315.63552734 59.60302734 316.39355469 C63.58508182 324.13965552 67.57321255 331.88262229 71.5625 339.625 C72.0855069 340.64007629 72.0855069 340.64007629 72.61907959 341.67565918 C74.37635161 345.08621902 76.13370872 348.49673501 77.89111328 351.90722656 C80.36460023 356.70746212 82.83769017 361.50790218 85.31044006 366.30851746 C87.07559929 369.73535731 88.84116598 373.16198586 90.60766602 376.58813477 C93.87640945 382.92894184 97.14132638 389.27162104 100.39172363 395.62185669 C101.89765356 398.56334034 103.40590275 401.50363206 104.91430664 404.44384766 C105.6203694 405.82167825 106.32534441 407.20006699 107.02905273 408.57910156 C108.98537167 412.41247437 110.96363702 416.23297406 112.97232056 420.03918457 C113.68273876 421.39466461 114.38501234 422.75443327 115.08065796 424.11755371 C119.49960292 432.75441123 123.14804693 439.65892471 131.8125 444.625 C133.48432523 445.67639673 135.15485591 446.72985419 136.82421875 447.78515625 C137.67677246 448.30867676 138.52932617 448.83219727 139.40771484 449.37158203 C143.76038802 452.10583802 147.93259514 455.09070991 152.125 458.0625 C153.78745825 459.2282956 155.45021629 460.39366381 157.11328125 461.55859375 C160.34741361 463.83193992 163.57326573 466.11642419 166.79296875 468.41015625 C167.55528809 468.95212646 168.31760742 469.49409668 169.10302734 470.05249023 C170.52341111 471.06339541 171.94187283 472.07700958 173.35791016 473.09399414 C177.44729977 476.0040486 181.60332522 478.57699423 186 481 C186.80025354 476.68810707 187.19751686 472.5063274 187.36743164 468.12548828 C187.39327835 467.46400284 187.41912506 466.8025174 187.445755 466.12098694 C187.67360504 459.95284375 187.80642751 453.78249434 187.91112614 447.61114693 C187.98242105 443.49550525 188.08302359 439.38592214 188.26196289 435.2734375 C189.28807247 411.03988218 185.47272885 394.16763998 172.97738647 373.32952881 C170.36722944 368.93453919 168.03363882 364.42191826 165.703125 359.875 C164.92616306 358.40761547 164.14688891 356.94145274 163.36523438 355.4765625 C159.21805893 347.66210777 155.23271632 339.76302117 151.21737671 331.88031006 C148.6909717 326.921236 146.16017344 321.96440614 143.62890625 317.0078125 C143.13465652 316.03997833 142.6404068 315.07214417 142.13117981 314.07498169 C137.80992076 305.61823234 133.44812705 297.18338646 129.06640625 288.7578125 C124.4359249 279.85133641 119.83877701 270.92801033 115.25 262 C114.68230896 260.89555542 114.68230896 260.89555542 114.10314941 259.76879883 C112.17476085 256.01691227 110.24670947 252.26485256 108.31884766 248.51269531 C104.52680764 241.13256765 100.73219061 233.75376504 96.9375 226.375 C96.37925034 225.28943817 96.37925034 225.28943817 95.8097229 224.1819458 C88.62609484 210.21312084 81.43391825 196.2487079 74.2388916 182.28575134 C70.35607211 174.75057758 66.47420044 167.21491559 62.59231567 159.67926025 C60.76860508 156.13902261 58.94484841 152.59880869 57.12109375 149.05859375 C56.08072917 147.0390625 55.04036458 145.01953125 54 143 C50.5502512 143 49.13135092 143.79661284 46.11328125 145.40625 Z " fill="#2A3647" transform="translate(200,0)"/>
</svg>
