<svg xmlns="http://www.w3.org/2000/svg" width="512" height="512" viewBox="0 0 512 512" aria-hidden="true">
  <title>Mülleimer - Blau (ohne Hintergrund)</title>
  <g>
    <path d="M 371.86 495.44 L 367.23 498.00 L 256.36 497.99 L 145.50 497.98 L 140.25 494.97 C134.06,491.42 130.45,486.41 129.10,479.50 C128.56,476.75 121.46,397.44 113.32,303.25 L 98.52 132.00 L 89.71 132.00 C80.55,132.00 75.82,130.58 74.62,127.46 C74.28,126.56 74.00,118.95 74.00,110.52 C74.00,97.98 74.36,94.06 76.00,88.86 C78.43,81.16 83.38,74.20 89.76,69.54 C99.21,62.61 99.07,62.63 144.50,62.04 L 185.50 61.50 L 186.07 51.50 C186.54,43.31 187.14,40.54 189.36,36.21 C194.78,25.65 203.79,18.29 214.77,15.48 C220.03,14.13 226.81,13.94 259.24,14.20 C296.09,14.50 297.70,14.60 303.00,16.74 C311.34,20.11 318.28,26.76 322.61,35.52 C325.85,42.07 326.33,44.06 326.77,52.47 L 327.27 62.00 L 365.93 62.00 C409.05,62.00 411.93,62.34 421.51,68.46 C427.76,72.46 433.03,79.13 436.16,87.00 C438.11,91.88 438.36,94.44 438.43,109.83 L 438.50 127.16 L 435.69 129.58 C433.15,131.77 431.99,132.00 423.44,132.00 C418.25,132.00 414.00,132.42 414.00,132.93 C414.00,133.43 412.89,146.37 411.53,161.68 C408.30,197.98 402.98,258.91 392.48,380.00 C387.78,434.17 383.50,480.11 382.97,482.08 C381.60,487.22 377.22,492.49 371.86,495.44 ZM 146.90 482.72 L 150.30 485.00 L 256.20 485.00 C260.19,485.00 264.03,485.00 267.74,485.00 C358.26,485.01 365.78,485.01 368.18,481.50 C368.50,481.04 368.72,480.52 369.04,479.93 C370.10,477.94 400.54,133.21 399.73,132.40 C399.51,132.17 334.78,132.11 255.88,132.25 L 112.43 132.50 L 127.18 303.00 C135.29,396.77 142.28,475.06 142.71,476.97 C143.24,479.29 144.62,481.19 146.90,482.72 ZM 88.01 107.25 L 88.00 118.01 L 424.50 117.50 L 424.50 105.50 C424.50,94.21 424.34,93.22 421.75,88.82 C418.44,83.20 412.77,78.31 408.00,76.99 C405.80,76.37 349.11,76.01 255.57,76.01 C107.46,76.00 106.61,76.01 102.40,78.05 C96.87,80.72 90.43,87.79 89.08,92.65 C88.49,94.77 88.01,101.34 88.01,107.25 ZM 263.00 179.00 L 263.00 438.00 L 256.67 438.00 C253.18,438.00 250.03,437.70 249.67,437.33 C249.30,436.97 249.00,378.69 249.00,307.83 L 249.00 179.00 ZM 199.34 60.44 C199.87,61.83 206.11,62.00 256.47,62.00 L 313.00 62.00 L 313.00 55.37 C313.00,46.31 311.39,41.65 306.30,35.99 C299.23,28.13 298.44,28.00 256.45,28.00 C217.27,28.00 215.33,28.23 208.30,33.58 C206.47,34.98 203.87,38.30 202.52,40.95 C200.07,45.79 198.17,57.40 199.34,60.44 ZM 198.66 436.67 C198.39,436.95 195.43,437.42 192.10,437.72 C187.45,438.15 185.94,437.95 185.60,436.89 C185.35,436.12 183.79,412.77 182.12,385.00 C180.46,357.23 176.97,299.74 174.37,257.26 C171.77,214.78 169.84,179.85 170.07,179.64 C170.31,179.43 173.29,178.96 176.70,178.59 L 182.89 177.91 L 183.41 181.21 C183.70,183.02 185.52,211.05 187.46,243.50 C189.40,275.95 192.82,332.57 195.08,369.33 C197.33,406.09 198.94,436.39 198.66,436.67 ZM 327.39 430.75 L 326.77 438.00 L 320.44 438.00 C316.96,438.00 313.92,437.66 313.69,437.25 C313.45,436.84 316.55,383.62 320.58,319.00 C324.61,254.38 328.21,196.27 328.58,189.88 L 329.27 178.25 L 335.88 178.76 C339.52,179.04 342.63,179.37 342.79,179.51 C343.10,179.76 328.49,418.02 327.39 430.75 Z" fill="#29ABE2" stroke="#29ABE2" stroke-width="4" stroke-linejoin="round"/>
    <path d="M 371.86 495.44 L 367.23 498.00 L 256.36 497.99 L 145.50 497.98 L 140.25 494.97 C134.06,491.42 130.45,486.41 129.10,479.50 C128.56,476.75 121.46,397.44 113.32,303.25 L 98.52 132.00 L 89.71 132.00 C80.55,132.00 75.82,130.58 74.62,127.46 C74.28,126.56 74.00,118.95 74.00,110.52 C74.00,97.98 74.36,94.06 76.00,88.86 C78.43,81.16 83.38,74.20 89.76,69.54 C99.21,62.61 99.07,62.63 144.50,62.04 L 185.50 61.50 L 186.07 51.50 C186.54,43.31 187.14,40.54 189.36,36.21 C194.78,25.65 203.79,18.29 214.77,15.48 C220.03,14.13 226.81,13.94 259.24,14.20 C296.09,14.50 297.70,14.60 303.00,16.74 C311.34,20.11 318.28,26.76 322.61,35.52 C325.85,42.07 326.33,44.06 326.77,52.47 L 327.27 62.00 L 365.93 62.00 C409.05,62.00 411.93,62.34 421.51,68.46 C427.76,72.46 433.03,79.13 436.16,87.00 C438.11,91.88 438.36,94.44 438.43,109.83 L 438.50 127.16 L 435.69 129.58 C433.15,131.77 431.99,132.00 423.44,132.00 C418.25,132.00 414.00,132.42 414.00,132.93 C414.00,133.43 412.89,146.37 411.53,161.68 C408.30,197.98 402.98,258.91 392.48,380.00 C387.78,434.17 383.50,480.11 382.97,482.08 C381.60,487.22 377.22,492.49 371.86,495.44 ZM 146.90 482.72 L 150.30 485.00 L 256.20 485.00 C260.19,485.00 264.03,485.00 267.74,485.00 C358.26,485.01 365.78,485.01 368.18,481.50 C368.50,481.04 368.72,480.52 369.04,479.93 C370.10,477.94 400.54,133.21 399.73,132.40 C399.51,132.17 334.78,132.11 255.88,132.25 L 112.43 132.50 L 127.18 303.00 C135.29,396.77 142.28,475.06 142.71,476.97 C143.24,479.29 144.62,481.19 146.90,482.72 ZM 88.01 107.25 L 88.00 118.01 L 424.50 117.50 L 424.50 105.50 C424.50,94.21 424.34,93.22 421.75,88.82 C418.44,83.20 412.77,78.31 408.00,76.99 C405.80,76.37 349.11,76.01 255.57,76.01 C107.46,76.00 106.61,76.01 102.40,78.05 C96.87,80.72 90.43,87.79 89.08,92.65 C88.49,94.77 88.01,101.34 88.01,107.25 ZM 263.00 179.00 L 263.00 438.00 L 256.67 438.00 C253.18,438.00 250.03,437.70 249.67,437.33 C249.30,436.97 249.00,378.69 249.00,307.83 L 249.00 179.00 ZM 199.34 60.44 C199.87,61.83 206.11,62.00 256.47,62.00 L 313.00 62.00 L 313.00 55.37 C313.00,46.31 311.39,41.65 306.30,35.99 C299.23,28.13 298.44,28.00 256.45,28.00 C217.27,28.00 215.33,28.23 208.30,33.58 C206.47,34.98 203.87,38.30 202.52,40.95 C200.07,45.79 198.17,57.40 199.34,60.44 ZM 198.66 436.67 C198.39,436.95 195.43,437.42 192.10,437.72 C187.45,438.15 185.94,437.95 185.60,436.89 C185.35,436.12 183.79,412.77 182.12,385.00 C180.46,357.23 176.97,299.74 174.37,257.26 C171.77,214.78 169.84,179.85 170.07,179.64 C170.31,179.43 173.29,178.96 176.70,178.59 L 182.89 177.91 L 183.41 181.21 C183.70,183.02 185.52,211.05 187.46,243.50 C189.40,275.95 192.82,332.57 195.08,369.33 C197.33,406.09 198.94,436.39 198.66,436.67 ZM 327.39 430.75 L 326.77 438.00 L 320.44 438.00 C316.96,438.00 313.92,437.66 313.69,437.25 C313.45,436.84 316.55,383.62 320.58,319.00 C324.61,254.38 328.21,196.27 328.58,189.88 L 329.27 178.25 L 335.88 178.76 C339.52,179.04 342.63,179.37 342.79,179.51 C343.10,179.76 328.49,418.02 327.39 430.75 Z" fill="#29ABE2" stroke="#29ABE2" stroke-width="4" stroke-linejoin="round"/>
    <path d="M 371.86 495.44 L 367.23 498.00 L 256.36 497.99 L 145.50 497.98 L 140.25 494.97 C134.06,491.42 130.45,486.41 129.10,479.50 C128.56,476.75 121.46,397.44 113.32,303.25 L 98.52 132.00 L 89.71 132.00 C80.55,132.00 75.82,130.58 74.62,127.46 C74.28,126.56 74.00,118.95 74.00,110.52 C74.00,97.98 74.36,94.06 76.00,88.86 C78.43,81.16 83.38,74.20 89.76,69.54 C99.21,62.61 99.07,62.63 144.50,62.04 L 185.50 61.50 L 186.07 51.50 C186.54,43.31 187.14,40.54 189.36,36.21 C194.78,25.65 203.79,18.29 214.77,15.48 C220.03,14.13 226.81,13.94 259.24,14.20 C296.09,14.50 297.70,14.60 303.00,16.74 C311.34,20.11 318.28,26.76 322.61,35.52 C325.85,42.07 326.33,44.06 326.77,52.47 L 327.27 62.00 L 365.93 62.00 C409.05,62.00 411.93,62.34 421.51,68.46 C427.76,72.46 433.03,79.13 436.16,87.00 C438.11,91.88 438.36,94.44 438.43,109.83 L 438.50 127.16 L 435.69 129.58 C433.15,131.77 431.99,132.00 423.44,132.00 C418.25,132.00 414.00,132.42 414.00,132.93 C414.00,133.43 412.89,146.37 411.53,161.68 C408.30,197.98 402.98,258.91 392.48,380.00 C387.78,434.17 383.50,480.11 382.97,482.08 C381.60,487.22 377.22,492.49 371.86,495.44 ZM 146.90 482.72 L 150.30 485.00 L 256.20 485.00 C260.19,485.00 264.03,485.00 267.74,485.00 C358.26,485.01 365.78,485.01 368.18,481.50 C368.50,481.04 368.72,480.52 369.04,479.93 C370.10,477.94 400.54,133.21 399.73,132.40 C399.51,132.17 334.78,132.11 255.88,132.25 L 112.43 132.50 L 127.18 303.00 C135.29,396.77 142.28,475.06 142.71,476.97 C143.24,479.29 144.62,481.19 146.90,482.72 ZM 88.01 107.25 L 88.00 118.01 L 424.50 117.50 L 424.50 105.50 C424.50,94.21 424.34,93.22 421.75,88.82 C418.44,83.20 412.77,78.31 408.00,76.99 C405.80,76.37 349.11,76.01 255.57,76.01 C107.46,76.00 106.61,76.01 102.40,78.05 C96.87,80.72 90.43,87.79 89.08,92.65 C88.49,94.77 88.01,101.34 88.01,107.25 ZM 263.00 179.00 L 263.00 438.00 L 256.67 438.00 C253.18,438.00 250.03,437.70 249.67,437.33 C249.30,436.97 249.00,378.69 249.00,307.83 L 249.00 179.00 ZM 199.34 60.44 C199.87,61.83 206.11,62.00 256.47,62.00 L 313.00 62.00 L 313.00 55.37 C313.00,46.31 311.39,41.65 306.30,35.99 C299.23,28.13 298.44,28.00 256.45,28.00 C217.27,28.00 215.33,28.23 208.30,33.58 C206.47,34.98 203.87,38.30 202.52,40.95 C200.07,45.79 198.17,57.40 199.34,60.44 ZM 198.66 436.67 C198.39,436.95 195.43,437.42 192.10,437.72 C187.45,438.15 185.94,437.95 185.60,436.89 C185.35,436.12 183.79,412.77 182.12,385.00 C180.46,357.23 176.97,299.74 174.37,257.26 C171.77,214.78 169.84,179.85 170.07,179.64 C170.31,179.43 173.29,178.96 176.70,178.59 L 182.89 177.91 L 183.41 181.21 C183.70,183.02 185.52,211.05 187.46,243.50 C189.40,275.95 192.82,332.57 195.08,369.33 C197.33,406.09 198.94,436.39 198.66,436.67 ZM 327.39 430.75 L 326.77 438.00 L 320.44 438.00 C316.96,438.00 313.92,437.66 313.69,437.25 C313.45,436.84 316.55,383.62 320.58,319.00 C324.61,254.38 328.21,196.27 328.58,189.88 L 329.27 178.25 L 335.88 178.76 C339.52,179.04 342.63,179.37 342.79,179.51 C343.10,179.76 328.49,418.02 327.39 430.75 Z" fill="#29ABE2" stroke="#29ABE2" stroke-width="6" stroke-linejoin="round"/>
  </g>
</svg>
